{"title":"Superbowl LII HD Full Show BBC. revittony","magnet":"magnet:?xt=urn:btih:2fc87e6bf9e687337d15c4c9e14be7e0764dd99a&dn=Superbowl+LII+HD+Full+Show+BBC.+revittony&tr=udp%3A%2F%2Ftracker.leechers-paradise.org%3A6969&tr=udp%3A%2F%2Fzer0day.ch%3A1337&tr=udp%3A%2F%2Fopen.demonii.com%3A1337&tr=udp%3A%2F%2Ftracker.coppersurfer.tk%3A6969&tr=udp%3A%2F%2Fexodus.desync.com%3A6969","uploader":"revittony1","categoryP":"video","categoryS":"tv_shows","size":"3445964368","seeders":"1","leechers":"2","description":"General \r\nComplete name : H:TorrentSuperbowl LII.mp4 \r\nFormat : MPEG-4 \r\nFormat profile : Base Media \r\nCodec ID : isom (isom/iso2/avc1/mp41) \r\nFile size : 3.21 GiB \r\nDuration : 4 h 25 min \r\nOverall bit rate : 1 732 kb/s \r\nCollection : get_iplayer \r\nAlbum : get_iplayer \r\nAlbum/Performer : BBC TV \r\nTrack name : b09qvhyq \r\nPerformer : BBC One \r\nComposer : BBC iPlayer \r\nContentType : TV Show \r\nDescription : Live coverage of Super Bowl LII, featuring New England Patriots v Philadelphia Eagles. \r\nRecorded date : UTC 2018-02-05 10:45:37 \r\nTagged date : UTC 2018-02-05 10:45:39 \r\nWriting application : Lavf57.25.100 \r\nCopyright : 2018 British Broadcasting Corporation, all rights reserved \r\nCover : Yes \r\nLyrics : Live coverage of Super Bowl LII, featuring New England Patriots v Philadelphia Eagles. / / EPISODE / http://www.bbc.co.uk/iplayer/episode/b09qvhyq/ \r\nComment : Live coverage of Super Bowl LII, featuring New England Patriots v Philadelphia Eagles. \r\nLongDescription : Live coverage of Super Bowl LII, featuring New England Patriots v Philadelphia Eagles. \r\nPart_ID : b09qvhyq \r\nTVNetworkName : BBC One \r\n\r\nVideo \r\nID : 1 \r\nFormat : AVC \r\nFormat/Info : Advanced Video Codec \r\nFormat profile : <a href=\"/cdn-cgi/l/email-protection\" class=\"__cf_email__\" data-cfemail=\"3c715d55527c700f120d\">[email&#xA0;protected]</a> \r\nFormat settings : CABAC / 2 Ref Frames \r\nFormat settings, CABAC : Yes \r\nFormat settings, RefFrames : 2 frames \r\nFormat settings, GOP : M=4, N=96 \r\nCodec ID : avc1 \r\nCodec ID/Info : Advanced Video Coding \r\nDuration : 4 h 25 min \r\nBit rate : 1 598 kb/s \r\nWidth : 960 pixels \r\nHeight : 540 pixels \r\nDisplay aspect ratio : 16:9 \r\nFrame rate mode : Variable \r\nFrame rate : 25.000 FPS \r\nMinimum frame rate : 12.500 FPS \r\nMaximum frame rate : 90 000.000 FPS \r\nStandard : Component \r\nColor space : YUV \r\nChroma subsampling : 4:2:0 \r\nBit depth : 8 bits \r\nScan type : Progressive \r\nBits/(Pixel*Frame) : 0.123 \r\nStream size : 2.96 GiB (92%) \r\nColor range : Limited \r\nColor primaries : BT.709 \r\nTransfer characteristics : BT.709 \r\nMatrix coefficients : BT.709 \r\n\r\nAudio \r\nID : 2 \r\nFormat : AAC \r\nFormat/Info : Advanced Audio Codec \r\nFormat profile : LC \r\nCodec ID : mp4a-40-2 \r\nDuration : 4 h 25 min \r\nBit rate mode : Constant \r\nBit rate : 125 kb/s \r\nChannel(s) : 2 channels \r\nChannel positions : Front: L R \r\nSampling rate : 48.0 kHz \r\nFrame rate : 46.875 FPS (1024 SPF) \r\nCompression mode : Lossy \r\nStream size : 238 MiB (7%) \r\nLanguage : English \r\nDefault : Yes \r\nAlternate group : 1","last_updated":"2018-02-05T12:01:05.713Z","parsed":{"xt":"urn:btih:2fc87e6bf9e687337d15c4c9e14be7e0764dd99a","dn":"Superbowl LII HD Full Show BBC. revittony","tr":["udp://exodus.desync.com:6969","udp://open.demonii.com:1337","udp://tracker.coppersurfer.tk:6969","udp://tracker.leechers-paradise.org:6969","udp://zer0day.ch:1337"],"infoHash":"2fc87e6bf9e687337d15c4c9e14be7e0764dd99a","infoHashBuffer":{"type":"Buffer","data":[47,200,126,107,249,230,135,51,125,21,196,201,225,75,231,224,118,77,217,154]},"name":"Superbowl LII HD Full Show BBC. revittony","announce":["udp://exodus.desync.com:6969","udp://open.demonii.com:1337","udp://tracker.coppersurfer.tk:6969","udp://tracker.leechers-paradise.org:6969","udp://zer0day.ch:1337"],"urlList":[]}}